<svg width="320" height="320" version="1.1" xmlns="http://www.w3.org/2000/svg" desc="Created with imagetracer.js version 1.2.6" ><path fill="rgb(0,0,0)" stroke="rgb(0,0,0)" stroke-width="1" opacity="0" d="M 0 0 L 320 0 L 320 320 L 0 320 L 0 0 Z M 193 60 L 185 64 Q 179 68 177 76 Q 175 87 180 92 Q 184 98 193 100 L 201 100 L 209 97 Q 215 93 217 84 Q 218 72 213 68 Q 208 59 193 60 Z M 124 95 L 115 98 Q 107 102 105 112 Q 104 124 110 130 L 121 136 L 130 136 L 140 131 L 145 122 Q 147 108 141 103 Q 136 95 124 95 Z M 189 110 Q 174 113 165 121 Q 151 132 146 152 L 146 215 L 142 225 L 133 231 Q 123 232 118 229 Q 111 225 109 218 L 109 165 L 106 156 L 98 149 Q 88 147 84 151 Q 78 154 76 162 L 76 222 Q 78 236 86 245 Q 97 261 122 265 L 134 265 L 143 263 L 160 254 Q 172 244 177 228 L 178 223 L 178 160 L 183 149 Q 188 144 196 142 Q 202 142 207 145 Q 213 149 215 157 L 215 226 L 219 235 L 229 240 Q 237 241 241 238 Q 246 235 248 228 L 248 154 L 245 142 L 237 129 Q 228 117 214 112 L 206 110 L 189 110 Z " /><path fill="rgb(13,42,169)" stroke="rgb(13,42,169)" stroke-width="1" opacity="0.6627450980392157" d="M 192.5 60 Q 207.7 58.8 213 67.5 L 216 73.5 L 215 73.5 L 209.5 65 Q 204.5 59.5 192.5 61 L 182 67.5 Q 176.3 72.8 178 85.5 Q 180.3 92.3 185.5 96 Q 190.9 100.1 201 99.5 L 192.5 100 Q 184.2 97.9 180 91.5 Q 175.3 86.7 177 75.5 Q 179.1 68.1 184.5 64 L 192.5 60 Z " /><path fill="rgb(13,42,169)" stroke="rgb(13,42,169)" stroke-width="1" opacity="0.6627450980392157" d="M 216.5 75 L 217 83.5 L 216 83.5 L 216.5 75 Z " /><path fill="rgb(13,42,169)" stroke="rgb(13,42,169)" stroke-width="1" opacity="0.6627450980392157" d="M 214.5 88 L 215 89.5 L 213 90.5 L 214.5 88 Z " /><path fill="rgb(13,42,169)" stroke="rgb(13,42,169)" stroke-width="1" opacity="0.6627450980392157" d="M 212.5 92 L 208.5 97 L 202.5 99 L 202.5 98 Q 209.5 97 212.5 92 Z " /><path fill="rgb(13,42,169)" stroke="rgb(13,42,169)" stroke-width="1" opacity="0.6627450980392157" d="M 123.5 95 Q 136.1 94.9 141 102.5 L 137.5 100 Q 132.5 96 123.5 96 L 123.5 95 Z " /><path fill="rgb(13,42,169)" stroke="rgb(13,42,169)" stroke-width="1" opacity="0.6627450980392157" d="M 118.5 96 L 122 96.5 L 116.5 98 L 116.5 97 L 118.5 96 Z " /><path fill="rgb(13,42,169)" stroke="rgb(13,42,169)" stroke-width="1" opacity="0.6627450980392157" d="M 114.5 98 L 113.5 100 L 114.5 98 Z " /><path fill="rgb(13,42,169)" stroke="rgb(13,42,169)" stroke-width="1" opacity="0.6627450980392157" d="M 141.5 104 L 142.5 106 L 141.5 104 Z " /><path fill="rgb(13,42,169)" stroke="rgb(13,42,169)" stroke-width="1" opacity="0.6627450980392157" d="M 188.5 110 L 205.5 110 L 213.5 112 Q 228.3 117.2 237 128.5 L 241 134.5 L 239 133.5 L 230.5 123 Q 222.2 115.3 209.5 112 Q 201.6 109.4 189.5 111 Q 168.6 114.6 158 128.5 Q 149.9 137.4 147 151.5 L 146.5 200 L 146 151.5 Q 150.8 131.8 164.5 121 Q 173.8 112.8 188.5 110 Z " /><path fill="rgb(13,42,169)" stroke="rgb(13,42,169)" stroke-width="1" opacity="0.6627450980392157" d="M 142.5 126 L 141.5 128 L 142.5 126 Z " /><path fill="rgb(13,42,169)" stroke="rgb(13,42,169)" stroke-width="1" opacity="0.6627450980392157" d="M 140.5 129 L 139.5 131 L 140.5 129 Z " /><path fill="rgb(13,42,169)" stroke="rgb(13,42,169)" stroke-width="1" opacity="0.6627450980392157" d="M 137.5 131 L 136.5 133 L 137.5 131 Z " /><path fill="rgb(13,42,169)" stroke="rgb(13,42,169)" stroke-width="1" opacity="0.6627450980392157" d="M 120.5 135 L 130 135.5 L 120.5 136 L 120.5 135 Z " /><path fill="rgb(13,42,169)" stroke="rgb(13,42,169)" stroke-width="1" opacity="0.6627450980392157" d="M 241.5 136 Q 245.4 139.6 246 146.5 L 245 146.5 L 241.5 136 Z " /><path fill="rgb(13,42,169)" stroke="rgb(13,42,169)" stroke-width="1" opacity="0.6627450980392157" d="M 191.5 142 L 195 142.5 Q 186.6 143.1 183 148.5 L 179.5 155 L 179 153.5 L 184.5 146 L 191.5 142 Z " /><path fill="rgb(13,42,169)" stroke="rgb(13,42,169)" stroke-width="1" opacity="0.6627450980392157" d="M 199.5 142 L 202 142.5 L 199.5 143 L 199.5 142 Z " /><path fill="rgb(13,42,169)" stroke="rgb(13,42,169)" stroke-width="1" opacity="0.6627450980392157" d="M 203.5 143 L 206.5 144 L 214 151.5 L 216 156.5 L 216 225.5 L 221 235.5 L 219 234.5 L 215 225.5 L 215 156.5 Q 212.9 148.6 206.5 145 Q 202.8 144.8 203.5 143 Z " /><path fill="rgb(13,42,169)" stroke="rgb(13,42,169)" stroke-width="1" opacity="0.6627450980392157" d="M 246.5 148 L 247 150.5 L 246 150.5 L 246.5 148 Z " /><path fill="rgb(13,42,169)" stroke="rgb(13,42,169)" stroke-width="1" opacity="0.6627450980392157" d="M 87.5 149 Q 102.2 146.8 106 155.5 L 101.5 152 Q 97.2 148.3 87.5 150 L 85.5 151 L 85.5 150 L 87.5 149 Z " /><path fill="rgb(13,42,169)" stroke="rgb(13,42,169)" stroke-width="1" opacity="0.6627450980392157" d="M 83.5 151 L 82.5 153 L 83.5 151 Z " /><path fill="rgb(13,42,169)" stroke="rgb(13,42,169)" stroke-width="1" opacity="0.6627450980392157" d="M 247.5 153 L 248 159.5 L 247 159.5 L 247.5 153 Z " /><path fill="rgb(13,42,169)" stroke="rgb(13,42,169)" stroke-width="1" opacity="0.6627450980392157" d="M 178.5 156 L 179 158.5 L 178 158.5 L 178.5 156 Z " /><path fill="rgb(13,42,169)" stroke="rgb(13,42,169)" stroke-width="1" opacity="0.6627450980392157" d="M 111.5 223 Q 116.5 232.5 132 231.5 L 122.5 232 Q 114 229.7 111.5 223 Z " /><path fill="rgb(13,42,169)" stroke="rgb(13,42,169)" stroke-width="1" opacity="0.6627450980392157" d="M 247.5 224 L 248 227.5 L 247 227.5 L 247.5 224 Z " /><path fill="rgb(13,42,169)" stroke="rgb(13,42,169)" stroke-width="1" opacity="0.6627450980392157" d="M 137.5 228 L 136.5 230 L 137.5 228 Z " /><path fill="rgb(13,42,169)" stroke="rgb(13,42,169)" stroke-width="1" opacity="0.6627450980392157" d="M 246.5 229 L 247 230.5 L 240.5 238 L 237.5 239 L 237.5 238 L 245 232.5 L 246.5 229 Z " /><path fill="rgb(13,42,169)" stroke="rgb(13,42,169)" stroke-width="1" opacity="0.6627450980392157" d="M 222.5 236 L 223.5 238 L 222.5 236 Z " /><path fill="rgb(13,42,169)" stroke="rgb(13,42,169)" stroke-width="1" opacity="0.6627450980392157" d="M 171.5 239 L 170.5 241 L 171.5 239 Z " /><path fill="rgb(13,42,169)" stroke="rgb(13,42,169)" stroke-width="1" opacity="0.6627450980392157" d="M 228.5 239 L 236 239.5 L 228.5 240 L 228.5 239 Z " /><path fill="rgb(13,42,169)" stroke="rgb(13,42,169)" stroke-width="1" opacity="0.6627450980392157" d="M 169.5 242 L 168.5 244 L 169.5 242 Z " /><path fill="rgb(13,42,169)" stroke="rgb(13,42,169)" stroke-width="1" opacity="0.6627450980392157" d="M 167.5 245 L 159.5 254 L 167.5 245 Z " /><path fill="rgb(13,42,169)" stroke="rgb(13,42,169)" stroke-width="1" opacity="0.6627450980392157" d="M 157.5 254 L 156.5 256 L 157.5 254 Z " /><path fill="rgb(13,42,169)" stroke="rgb(13,42,169)" stroke-width="1" opacity="0.6627450980392157" d="M 154.5 256 L 153.5 258 L 154.5 256 Z " /><path fill="rgb(13,42,169)" stroke="rgb(13,42,169)" stroke-width="1" opacity="0.6627450980392157" d="M 115.5 263 L 118 263.5 L 115.5 264 L 115.5 263 Z " /><path fill="rgb(13,42,169)" stroke="rgb(13,42,169)" stroke-width="1" opacity="0.6627450980392157" d="M 136.5 263 L 139 263.5 L 136.5 264 L 136.5 263 Z " /><path fill="rgb(13,42,169)" stroke="rgb(13,42,169)" stroke-width="1" opacity="0.6627450980392157" d="M 121.5 264 L 134 264.5 L 121.5 265 L 121.5 264 Z " /><path fill="rgb(82,117,213)" stroke="rgb(82,117,213)" stroke-width="1" opacity="0.7098039215686275" d="M 122.5 96 L 128 96.5 L 122.5 97 L 122.5 96 Z " /><path fill="rgb(82,117,213)" stroke="rgb(82,117,213)" stroke-width="1" opacity="0.7098039215686275" d="M 115.5 98 L 117 98.5 L 110 103.5 Q 104.7 108.2 106 119.5 Q 108.1 127.9 114.5 132 L 121 134.5 L 118.5 135 L 110 130 L 106 123.5 L 105 111.5 Q 107.1 104.1 112.5 100 L 115.5 98 Z " /><path fill="rgb(82,117,213)" stroke="rgb(82,117,213)" stroke-width="1" opacity="0.7098039215686275" d="M 133.5 98 L 136 99.5 L 134.5 99 L 133.5 98 Z " /><path fill="rgb(82,117,213)" stroke="rgb(82,117,213)" stroke-width="1" opacity="0.7098039215686275" d="M 137.5 100 L 140.5 104 L 137.5 100 Z " /><path fill="rgb(82,117,213)" stroke="rgb(82,117,213)" stroke-width="1" opacity="0.7098039215686275" d="M 144.5 111 L 145 120.5 L 144 120.5 L 144.5 111 Z " /><path fill="rgb(82,117,213)" stroke="rgb(82,117,213)" stroke-width="1" opacity="0.7098039215686275" d="M 143.5 122 L 144 123.5 L 141.5 127 L 142 125.5 L 143.5 122 Z " /><path fill="rgb(82,117,213)" stroke="rgb(82,117,213)" stroke-width="1" opacity="0.7098039215686275" d="M 140.5 128 L 138.5 131 L 140.5 128 Z " /><path fill="rgb(82,117,213)" stroke="rgb(82,117,213)" stroke-width="1" opacity="0.7098039215686275" d="M 136.5 131 L 135.5 133 L 136.5 131 Z " /><path fill="rgb(82,117,213)" stroke="rgb(82,117,213)" stroke-width="1" opacity="0.7098039215686275" d="M 129.5 134 L 132 134.5 L 129.5 135 L 129.5 134 Z " /><path fill="rgb(82,117,213)" stroke="rgb(82,117,213)" stroke-width="1" opacity="0.7098039215686275" d="M 84.5 151 L 86 151.5 L 83.5 153 L 84.5 151 Z " /><path fill="rgb(82,117,213)" stroke="rgb(82,117,213)" stroke-width="1" opacity="0.7098039215686275" d="M 101.5 152 L 105.5 157 L 101.5 152 Z " /><path fill="rgb(82,117,213)" stroke="rgb(82,117,213)" stroke-width="1" opacity="0.7098039215686275" d="M 81.5 153 L 80 155.5 L 77 161.5 L 77 221.5 Q 81.2 242.3 95.5 253 L 112 261.5 L 110.5 262 Q 95.1 256.4 86 244.5 Q 78.5 235.5 76 221.5 L 76 161.5 L 81.5 153 Z " /><path fill="rgb(82,117,213)" stroke="rgb(82,117,213)" stroke-width="1" opacity="0.7098039215686275" d="M 108.5 165 L 109 217.5 L 108 217.5 L 108.5 165 Z " /><path fill="rgb(82,117,213)" stroke="rgb(82,117,213)" stroke-width="1" opacity="0.7098039215686275" d="M 146.5 200 L 147 214.5 Q 145.4 225.4 137.5 230 L 143 223.5 L 146 214.5 L 146.5 200 Z " /><path fill="rgb(82,117,213)" stroke="rgb(82,117,213)" stroke-width="1" opacity="0.7098039215686275" d="M 177.5 216 L 178 221.5 L 177 221.5 L 177.5 216 Z " /><path fill="rgb(82,117,213)" stroke="rgb(82,117,213)" stroke-width="1" opacity="0.7098039215686275" d="M 111.5 224 L 115.5 229 L 111.5 224 Z " /><path fill="rgb(82,117,213)" stroke="rgb(82,117,213)" stroke-width="1" opacity="0.7098039215686275" d="M 176.5 224 L 177 226.5 L 176 226.5 L 176.5 224 Z " /><path fill="rgb(82,117,213)" stroke="rgb(82,117,213)" stroke-width="1" opacity="0.7098039215686275" d="M 123.5 232 L 131 232.5 L 123.5 233 L 123.5 232 Z " /><path fill="rgb(82,117,213)" stroke="rgb(82,117,213)" stroke-width="1" opacity="0.7098039215686275" d="M 171.5 238 L 170.5 240 L 171.5 238 Z " /><path fill="rgb(82,117,213)" stroke="rgb(82,117,213)" stroke-width="1" opacity="0.7098039215686275" d="M 169.5 241 L 168.5 243 L 169.5 241 Z " /><path fill="rgb(82,117,213)" stroke="rgb(82,117,213)" stroke-width="1" opacity="0.7098039215686275" d="M 167.5 244 L 158.5 254 L 167.5 244 Z " /><path fill="rgb(82,117,213)" stroke="rgb(82,117,213)" stroke-width="1" opacity="0.7098039215686275" d="M 156.5 254 L 155.5 256 L 156.5 254 Z " /><path fill="rgb(82,117,213)" stroke="rgb(82,117,213)" stroke-width="1" opacity="0.7098039215686275" d="M 153.5 256 L 152.5 258 L 153.5 256 Z " /><path fill="rgb(82,117,213)" stroke="rgb(82,117,213)" stroke-width="1" opacity="0.7098039215686275" d="M 147.5 259 L 149 259.5 L 145.5 261 L 145.5 260 L 147.5 259 Z " /><path fill="rgb(82,117,213)" stroke="rgb(82,117,213)" stroke-width="1" opacity="0.7098039215686275" d="M 113.5 262 L 116 262.5 L 113.5 263 L 113.5 262 Z " /><path fill="rgb(82,117,213)" stroke="rgb(82,117,213)" stroke-width="1" opacity="0.7098039215686275" d="M 138.5 262 L 141 262.5 L 138.5 263 L 138.5 262 Z " /><path fill="rgb(82,117,213)" stroke="rgb(82,117,213)" stroke-width="1" opacity="0.7098039215686275" d="M 118.5 263 L 123 263.5 L 118.5 264 L 118.5 263 Z " /><path fill="rgb(82,117,213)" stroke="rgb(82,117,213)" stroke-width="1" opacity="0.7098039215686275" d="M 131.5 263 L 136 263.5 L 131.5 264 L 131.5 263 Z " /><path fill="rgb(10,41,186)" stroke="rgb(10,41,186)" stroke-width="1" opacity="0.996078431372549" d="M 192.5 61 L 201.5 61 L 212 67.5 Q 218 72.5 216 85.5 Q 213.8 92.3 208.5 96 Q 203.4 100.4 192.5 99 Q 184.8 97.1 181 91.5 Q 176.3 86.7 178 75.5 L 184.5 65 L 192.5 61 Z " /><path fill="rgb(10,41,186)" stroke="rgb(10,41,186)" stroke-width="1" opacity="0.996078431372549" d="M 189.5 111 L 205.5 111 L 215.5 114 Q 227.5 118.5 235 127.5 Q 243.8 136.7 247 151.5 L 247 159.5 L 248 160.5 L 248 223.5 L 245 232.5 L 240.5 237 Q 236.5 240.5 227.5 239 L 220 234.5 L 216 225.5 L 216 156.5 Q 213.6 147.9 206.5 144 Q 201.4 140.6 191.5 142 L 182 148.5 L 178 156.5 L 178 198.5 Q 176.5 205 171.5 208 L 164.5 211 L 159.5 211 Q 152.5 209.4 149 204.5 L 147 201.5 L 147 151.5 Q 151.4 132.4 164.5 122 Q 174 113.5 189.5 111 Z " /><path fill="rgb(85,122,222)" stroke="rgb(85,122,222)" stroke-width="1" opacity="0.996078431372549" d="M 120.5 97 L 130.5 97 Q 137.9 99.6 142 105.5 Q 145.6 110.9 144 121.5 L 137.5 131 Q 132.4 135.9 121.5 135 Q 113.2 132.9 109 126.5 Q 104.8 121.7 106 111.5 L 112.5 101 L 120.5 97 Z " /><path fill="rgb(85,122,222)" stroke="rgb(85,122,222)" stroke-width="1" opacity="0.996078431372549" d="M 89.5 150 Q 102.1 149.4 106 157.5 L 108 162.5 L 108 217.5 Q 109.8 225.2 115.5 229 Q 119.8 234.2 130.5 233 Q 139.5 230.5 144 223.5 Q 148.4 215.4 147.5 202 L 152.5 208 L 159.5 211 L 164.5 211 Q 172.2 209.1 176 203.5 L 177.5 199 L 178 215.5 L 177 216.5 L 176 227.5 L 172 237.5 L 157.5 254 L 141.5 262 L 123.5 264 L 112.5 262 L 101.5 257 L 88 245.5 Q 79.6 236.4 77 221.5 L 77 161.5 L 82.5 153 L 89.5 150 Z " /></svg>